<?xml version="1.0" standalone="no"?>
<!DOCTYPE svg PUBLIC "-//W3C//DTD SVG 20010904//EN"
 "http://www.w3.org/TR/2001/REC-SVG-20010904/DTD/svg10.dtd">
<svg version="1.0" xmlns="http://www.w3.org/2000/svg"
 width="312.000000pt" height="312.000000pt" viewBox="0 0 312.000000 312.000000"
 preserveAspectRatio="xMidYMid meet">
<metadata>
Created by potrace 1.11, written by Peter Selinger 2001-2013
</metadata>
<g transform="translate(0.000000,312.000000) scale(0.100000,-0.100000)"
fill="#000000" stroke="none">
<path d="M1460 3089 c-538 -28 -1027 -349 -1270 -834 -75 -150 -114 -269 -141
-427 -30 -173 -23 -461 14 -619 142 -598 626 -1057 1223 -1159 191 -33 475
-26 634 15 61 16 80 35 80 78 0 67 -39 85 -136 62 -238 -54 -511 -40 -749 40
-80 27 -247 109 -316 155 -411 276 -650 743 -625 1225 35 712 609 1286 1321
1321 482 25 949 -214 1225 -625 46 -69 128 -236 155 -316 108 -321 95 -660
-35 -972 -43 -103 -50 -152 -24 -177 19 -19 83 -21 107 -4 40 31 133 317 157
484 18 130 14 362 -10 498 -79 460 -373 864 -790 1084 -254 134 -507 187 -820
171z"/>
<path d="M1502 2898 c-7 -7 -12 -44 -12 -94 0 -94 8 -107 70 -107 62 0 70 13
70 109 0 72 -3 85 -19 94 -27 14 -94 13 -109 -2z"/>
<path d="M1512 2534 l-22 -15 0 -411 0 -410 -27 -27 c-16 -15 -33 -35 -38 -45
-8 -15 -88 -34 -419 -100 -436 -88 -436 -88 -436 -147 0 -44 30 -71 77 -71 22
0 210 35 418 76 346 70 378 75 398 61 61 -43 155 -38 202 10 55 54 52 162 -6
216 l-29 27 0 410 0 411 -22 15 c-12 9 -34 16 -48 16 -14 0 -36 -7 -48 -16z"/>
<path d="M600 2520 c-13 -13 -20 -33 -20 -56 0 -30 8 -45 44 -80 35 -36 50
-44 80 -44 48 0 76 28 76 76 0 30 -8 45 -44 80 -35 36 -50 44 -80 44 -23 0
-43 -7 -56 -20z"/>
<path d="M2384 2496 c-36 -35 -44 -50 -44 -80 0 -47 28 -76 75 -76 27 0 45 9
76 38 76 70 60 162 -27 162 -30 0 -45 -8 -80 -44z"/>
<path d="M222 1618 c-15 -15 -16 -82 -2 -109 9 -16 22 -19 94 -19 96 0 109 8
109 70 0 62 -13 70 -107 70 -50 0 -87 -5 -94 -12z"/>
<path d="M2710 1615 c-7 -9 -13 -33 -13 -55 0 -62 13 -70 107 -70 50 0 87 5
94 12 18 18 15 94 -4 112 -22 22 -166 23 -184 1z"/>
<path d="M2327 1184 c-4 -4 -7 -31 -7 -60 l0 -53 -52 -15 c-141 -42 -194 -125
-177 -279 12 -105 88 -175 249 -228 101 -34 188 -78 195 -99 18 -56 -47 -85
-185 -84 -72 0 -110 6 -155 22 -110 41 -127 29 -123 -80 l3 -73 36 -18 c20
-10 75 -23 122 -29 l86 -12 3 -65 3 -66 80 0 80 0 3 72 3 72 60 17 c115 32
176 102 186 213 7 72 -10 132 -49 177 -36 41 -67 58 -208 114 -192 77 -218 98
-178 145 35 39 113 50 214 29 43 -9 97 -19 120 -21 l41 -5 21 52 c23 54 27 87
14 106 -9 15 -95 40 -165 49 l-56 7 -3 57 -3 56 -75 3 c-42 1 -79 0 -83 -4z"/>
<path d="M624 736 c-36 -35 -44 -50 -44 -80 0 -87 92 -103 162 -27 29 31 38
49 38 76 0 47 -29 75 -76 75 -30 0 -45 -8 -80 -44z"/>
<path d="M1535 423 c-39 -10 -45 -23 -45 -104 0 -57 4 -82 16 -93 18 -19 94
-22 112 -4 17 17 16 172 0 185 -17 14 -59 21 -83 16z"/>
</g>
</svg>
