<?xml version="1.0" standalone="no"?>
<!DOCTYPE svg PUBLIC "-//W3C//DTD SVG 20010904//EN"
 "http://www.w3.org/TR/2001/REC-SVG-20010904/DTD/svg10.dtd">
<svg version="1.0" xmlns="http://www.w3.org/2000/svg"
 width="512.000000pt" height="512.000000pt" viewBox="0 0 512.000000 512.000000"
 preserveAspectRatio="xMidYMid meet">
<metadata>
Created by potrace 1.11, written by Peter Selinger 2001-2013
</metadata>
<g transform="translate(0.000000,512.000000) scale(0.100000,-0.100000)"
fill="#000000" stroke="none">
<path d="M2325 5070 c-852 -77 -1604 -575 -1994 -1320 -226 -432 -308 -831
-280 -1364 14 -283 41 -426 125 -668 42 -123 152 -354 226 -476 131 -218 350
-469 550 -633 510 -416 1105 -603 1791 -561 298 19 472 56 522 112 30 34 28
130 -4 164 -36 38 -87 41 -236 12 -357 -69 -694 -60 -1048 30 -198 50 -486
181 -675 307 -519 347 -881 911 -987 1537 -22 131 -31 420 -16 561 55 532 283
1011 661 1389 378 378 857 606 1389 661 141 15 430 6 561 -16 495 -84 956
-329 1300 -692 179 -189 309 -386 426 -644 142 -313 202 -619 191 -973 -8
-273 -57 -501 -167 -785 -81 -210 -89 -282 -33 -318 37 -25 145 -23 174 3 66
58 205 478 255 770 25 141 24 577 0 759 -69 514 -307 1005 -670 1382 -390 406
-881 663 -1421 744 -147 22 -494 33 -640 19z"/>
<path d="M2471 4763 c-23 -19 -25 -28 -29 -135 -7 -176 11 -208 118 -208 105
0 124 33 118 211 -4 134 -8 140 -110 147 -62 4 -77 1 -97 -15z"/>
<path d="M2485 4167 l-40 -23 -5 -675 -5 -675 -59 -67 c-53 -59 -67 -70 -123
-87 -35 -11 -285 -65 -556 -120 -666 -137 -732 -154 -757 -199 -16 -31 -12
-93 9 -127 25 -41 76 -59 145 -50 76 11 380 67 778 146 507 100 477 96 546 63
83 -40 181 -44 255 -10 92 42 133 120 125 236 -6 77 -25 120 -79 176 l-39 41
-2 674 -3 674 -40 23 c-51 29 -99 29 -150 0z"/>
<path d="M1001 4156 c-34 -19 -50 -54 -51 -109 0 -58 10 -79 64 -135 55 -58
84 -72 151 -72 49 0 60 4 86 29 37 37 43 115 14 171 -16 30 -91 103 -122 119
-29 15 -113 13 -142 -3z"/>
<path d="M3975 4158 c-31 -16 -105 -90 -120 -118 -29 -56 -23 -134 14 -171 26
-26 36 -29 89 -29 53 0 66 4 104 33 24 18 58 54 76 81 53 80 42 170 -25 205
-28 14 -112 14 -138 -1z"/>
<path d="M397 2673 c-45 -7 -60 -42 -55 -124 7 -99 14 -103 147 -107 178 -6
211 13 211 118 0 64 -16 97 -53 110 -29 10 -191 12 -250 3z"/>
<path d="M4468 2669 c-31 -12 -48 -52 -48 -115 0 -100 35 -119 208 -112 139 5
152 14 152 107 0 71 -16 103 -60 118 -42 14 -214 15 -252 2z"/>
<path d="M3849 1952 c-43 -4 -49 -21 -49 -127 l0 -63 -72 -22 c-205 -62 -292
-159 -305 -342 -17 -254 92 -390 403 -499 327 -114 410 -196 266 -262 -43 -20
-64 -22 -227 -22 -176 0 -182 1 -278 33 -53 17 -108 32 -120 32 -60 0 -79 -58
-70 -209 l6 -94 52 -23 c46 -21 253 -64 310 -64 13 0 26 -4 29 -8 3 -5 8 -54
12 -110 l7 -102 132 0 132 0 7 37 c3 21 6 74 6 119 l0 80 72 19 c202 52 305
158 331 342 20 134 -15 254 -98 336 -48 48 -126 89 -320 167 -162 66 -274 121
-299 148 -25 28 -15 64 27 96 70 53 175 59 373 22 71 -13 150 -26 175 -29 l46
-6 31 78 c63 158 55 195 -50 230 -69 22 -214 51 -258 51 l-28 0 -4 90 c-2 49
-6 91 -9 93 -6 6 -188 13 -230 9z"/>
<path d="M1145 1284 c-6 -1 -23 -5 -38 -9 -33 -7 -122 -86 -143 -127 -17 -32
-18 -111 -3 -141 21 -40 51 -57 105 -57 42 0 61 6 100 33 27 17 63 51 81 75
29 38 33 51 33 102 0 73 -25 108 -86 119 -22 4 -44 6 -49 5z"/>
<path d="M2482 688 c-33 -16 -45 -71 -40 -192 5 -135 15 -148 116 -154 56 -3
71 -1 92 16 21 17 24 29 28 110 2 50 1 116 -3 147 -6 52 -9 58 -41 71 -39 16
-119 17 -152 2z"/>
</g>
</svg>
