<svg version="1" xmlns="http://www.w3.org/2000/svg" width="933.333" height="933.333" viewBox="0 0 700.000000 700.000000"><path d="M333.8 6.5c-.2.2-4.8.5-10.3.9-12.6.7-36.5 3.7-41.5 5.1-.8.2-3 .7-4.8 1-7.6 1.3-30.6 7.6-41.7 11.6-20.2 7.1-46.5 19.2-59.6 27.4-.9.5-3.2 1.9-5 2.9-7 3.9-26.8 17.8-37.4 26.2C114.4 96.8 83.7 128.9 72 146c-1.3 1.9-2.7 3.7-3 4-1.5 1.3-15.4 23.7-20.2 32.5-19.8 36.7-30.7 67.2-37.4 105.1-.8 4.9-1.7 10.2-1.9 11.9-2.2 21-2.4 24.2-2.4 49 0 21 .3 31.5 1.3 41 .3 2.7.8 7.7 1.2 11 .5 6.1 1.1 10 1.9 14.5.3 1.4.7 4.1 1 6 1.1 7 7.5 29.8 11.6 41.5C36 496.6 52.9 528.3 74.4 557c11.5 15.4 17.1 21.7 34.8 39.2 16.4 16.2 30.1 27.4 49.3 40.2 17.1 11.5 19.4 12.8 37 21.6 24.8 12.4 53.5 22.7 77 27.5 16.5 3.4 21.8 4.4 29 5.1 3.3.3 6.6.7 7.4 1 1.8.6 30.2 1.8 42.6 1.8 12 0 39-1.2 42.5-1.9 1.3-.3 4.9-.7 8-1 3.1-.3 6.4-.7 7.5-.9 1.1-.2 6.1-1.1 11-2 11.8-2.2 18.3-4.3 22.2-7.3 4.3-3.1 5.4-5.4 5.8-11.6.5-7.2-2.1-12.8-6.9-15.1-3.9-1.8-13.2-2-19.1-.5-4.7 1.3-31.2 5.8-39 6.6-14.5 1.6-63.3.8-74.4-1.2-2.4-.4-11.4-1.8-12.6-1.9-8.2-1-34.6-7.7-46-11.6-21.9-7.6-59.5-26.5-75.3-37.7-2.2-1.5-5-3.5-6.2-4.3-2.9-1.9-17.4-13.5-22.5-17.9-9.5-8.3-29.8-29.5-38.6-40.6C70.2 497.6 46.1 439.8 40.5 383c-.3-3-.8-7.5-1.1-10-.6-5.5-.6-37.7 0-44.5.3-2.8.8-7.9 1.1-11.5.8-8.4 5-32.2 7.6-42.5 4-15.5 14.4-45 18.8-53.2.5-1 3.1-6.1 5.7-11.3 20.4-41.3 53.9-81 92.4-109.7 36.4-27 77.3-45.5 120.8-54.7 6.4-1.4 14-2.8 16.7-3.2 2.8-.3 5.8-.8 6.8-1 1-.2 4.8-.6 8.5-.9 3.7-.4 8.3-.9 10.2-1.1 5.4-.6 38.7-.5 45.5.1 14.1 1.3 22.6 2.4 31 4 3.9.8 8.1 1.6 9.5 1.9 4.9.9 11.7 2.6 21.5 5.5 52.5 15.4 96.9 42.1 136 81.6 19.2 19.4 38 43.5 46.5 59.7 12.1 23 21.9 43.8 25.9 54.8 4.5 12.4 10.5 35.3 12.6 48 .3 1.9 1 6 1.5 9s1.2 8.6 1.6 12.5c.3 3.8.8 8.8 1 11 .5 5.1.4 38.4-.1 45-2.5 29.6-9.6 59.7-20.9 89.2-10.4 27.2-11.1 29.6-10.9 37.4.2 8.6 5.1 12.3 16.3 12.1 7.6-.1 10.3-1.4 13.7-6.4 6.8-10 22.1-54.3 27.4-79.3.7-3.3 1.4-6.5 1.5-7 6.8-25.8 7.8-82.9 2.2-122.5-1.1-8.2-1.1-8.1-3.4-19.5-10.7-53.1-38.4-109.1-74.7-151-26.1-30.1-53.6-53-87.4-73.1-9.3-5.5-25.9-13.9-36.3-18.3-4.1-1.8-8.8-3.9-10.5-4.6-4.6-2-23.3-8.5-29.5-10.2-8.3-2.2-21.2-5.5-23.5-5.9-14-2.5-26.3-4.4-32-4.9-3.8-.3-9-.9-11.5-1.2-4.3-.5-46.7-1.2-47.2-.8z"/><path d="M341.5 47.9c-6.2 1.9-7 4.6-6.9 25.2.1 14 1 17.7 5.2 20 4 2.2 15.2 2.5 19.6.4 5-2.4 6-6.1 6-23.6.1-16-.7-19.3-5.4-21.1-3-1.2-15.6-1.8-18.5-.9zM343.2 129.5c-1.8.8-4.6 2.3-6.1 3.4l-2.8 2v92l-.1 92.1-5.5 5.7c-3 3.2-6.7 7.2-8.1 9-3 3.6-11.7 6.7-26.6 9.7-2.4.5-15.8 3.4-19 4.1-4.5 1.1-59.9 12.3-64 13-1.9.3-5.5 1.1-8 1.6-2.5.6-5.6 1.3-7 1.5-1.4.2-3.8.7-5.5 1.1-1.6.4-3.2.7-3.5.8-.3 0-2.1.4-4 .8-3.8.8-4.1.8-15 3.2-14 2.9-30.5 7.6-34.2 9.7-4.6 2.6-6.2 6.3-5.6 12.9.6 5.6 3 9.5 7.5 12.1 3.4 2 10.3 2.8 15.3 1.7 1.9-.4 5.5-1.1 8-1.4 2.5-.4 11.5-2 20-3.6s17.1-3.2 19-3.5c1.9-.3 9.1-1.7 16-3.1 6.9-1.4 13.9-2.7 15.5-3 1.7-.3 8.4-1.6 15-3 6.6-1.3 13.4-2.7 15-2.9 1.7-.2 4.8-.9 7-1.4 3.3-.8 27.9-5.5 39-7.5 14-2.5 19.6-2.3 25.4.8 12.4 6.7 29.3 6.4 38.9-.7 8.1-5.9 12.6-15.8 12.4-27.1-.1-10.6-4-18.9-12.5-26.7l-4-3.7V134.9l-4.4-3c-5.3-3.7-13-4.7-18.1-2.4zM140.5 131.1c-9.6 2.7-13.5 17.9-7 26.6 5 6.6 14.5 15.1 18.2 16.4 4.4 1.4 12.3.6 16.3-1.8 6.2-3.6 8.8-14.6 5.4-22-1.9-3.9-11.2-13.9-16.2-17.3-3.6-2.4-11.6-3.4-16.7-1.9zM546.3 131.1c-4.1 1.2-17.9 14.7-19.8 19.3-3.6 8.6-.4 19 6.9 22.5 8.7 4.3 16.9 2 26.1-7.3 5.8-5.8 9.5-12.7 10.1-18.8.5-5.3-2.5-11.7-6.5-14.1-3.6-2.1-12.4-3-16.8-1.6zM58 335.1c-7.3.9-8.7 1.6-9.8 4.7-1.5 4.4-.8 17.3 1.1 20.9 2.3 4.3 4.4 4.8 21.7 4.7 21.2 0 23.8-1.7 23.8-15.4 0-13.2-2.7-15.2-20.3-15.4-6-.1-13.5.1-16.5.5zM618 334.6c-10.5 1.8-12.2 3.7-12.6 14.7-.5 14.2 2 16 22.6 16 23.7.1 24.5-.4 24.5-14.8-.1-9-2.1-13-7.3-14.5-3.9-1.2-23-2.1-27.2-1.4zM524.3 433.8c-2.9.4-3.6 3.1-3.7 15.3-.1 5.4-.4 10.1-.7 10.4-.3.3-4.4 1.6-9 3-29.8 8.8-42.2 24-42.2 51.5 0 18.6 3.7 29 14.1 39.5 8.7 8.9 19.4 15 38.2 21.8 30.5 11 45.9 18.8 47.6 23.9 1.7 4.9-.4 9.9-5.3 12.8-6.6 3.9-14.8 5.3-32.3 5.4-21.2.1-26.3-.5-39.6-4.9-15-5-19.2-5.4-23-2.2l-2.9 2.5-.2 16.2c-.1 8.9.1 16.8.4 17.5 1.5 4 20.9 9.7 40.8 12 7.8.9 12 1.7 13 2.5.6.5 1.2 5.3 1.4 10.7.2 8.3.6 13.4 1 17.6.1.4 8.1.6 17.8.5l17.8-.3.1-2.5c.1-1.4.4-8.5.7-15.8.3-7.4.7-13.5.9-13.7.2-.2 4.1-1.3 8.8-2.5 24.4-6.1 40.8-20.7 44.5-39.5.5-2.2 1-4.7 1.2-5.5.2-.8.4-5.6.4-10.6.1-14.9-4.4-26.4-14.1-36.1-6.3-6.3-17.5-12.1-44-22.8-31-12.5-43-19.4-43-24.7 0-6.1 7.6-12.5 18-15.1 7.3-1.9 21.1-1.4 34.1 1.2 5.7 1.1 12.2 2.3 14.4 2.6 2.2.4 4.7.8 5.5 1 .8.2 4.2.7 7.5 1.1 3.3.3 6.3.8 6.8 1.1.9.5 5-8.4 8.1-17.7 2.8-8.2 3.2-14.4 1.3-17.4-2.9-4.3-23.4-10.2-42.7-12.2-3.6-.3-6.6-.8-6.8-.9-.2-.2-.6-5.6-.9-12.1-.3-6.6-.9-12.3-1.3-12.7-.8-.9-28.3-1.6-32.7-.9zM152.5 525.7c-3.2.8-6.7 3.4-12.5 9.3-8.4 8.4-9.5 10.5-9.5 18 0 5.2.5 7.2 2.5 10.2 6.6 9.8 20.7 8.2 32.8-3.9 8.9-8.9 11.3-17.4 7.1-25.9-3.1-6.6-11.8-9.8-20.4-7.7zM342 605.8c-6.6 3.1-7.9 7.5-7.5 26 .4 17.7 2.2 20.1 15.8 20.8 13.8.6 15.1-1.4 15.1-23.6.1-16.1-.9-20-5.2-22-3.1-1.5-16-2.3-18.2-1.2z"/></svg>